HIERARCHY
ROOT hip
{
  OFFSET -0.0558518 90.8527 -0.103361
  CHANNELS 6 Xposition Yposition Zposition Zrotation Xrotation Yrotation
  JOINT abdomen
  {
    OFFSET 0 7.2397 0
    CHANNELS 6 Xposition Yposition Zposition Zrotation Xrotation Yrotation
    JOINT chest
    {
      OFFSET 0 16.546 0
      CHANNELS 6 Xposition Yposition Zposition Zrotation Xrotation Yrotation
      JOINT neck
      {
        OFFSET 0 34.2149 0
        CHANNELS 6 Xposition Yposition Zposition Zrotation Xrotation Yrotation
        JOINT head
        {
          OFFSET 0 6.2923 0
          CHANNELS 6 Xposition Yposition Zposition Zrotation Xrotation Yrotation
          End Site
          {
            OFFSET 0 21.2161 0
          }
        }
      }
      JOINT lCollar
      {
        OFFSET 4.0639 26.6115 -1.1234
        CHANNELS 6 Xposition Yposition Zposition Zrotation Xrotation Yrotation
        JOINT lShldr
        {
          OFFSET 14.1772 0 0
          CHANNELS 6 Xposition Yposition Zposition Zrotation Xrotation Yrotation
          JOINT lForeArm
          {
            OFFSET 26.1234 0 0
            CHANNELS 6 Xposition Yposition Zposition Zrotation Xrotation Yrotation
            JOINT lHand
            {
              OFFSET 27.7188 0 0
              CHANNELS 6 Xposition Yposition Zposition Zrotation Xrotation Yrotation
              JOINT lThumb1
              {
                OFFSET 2.2979 -0.4685 1.8313
                CHANNELS 6 Xposition Yposition Zposition Zrotation Xrotation Yrotation
                JOINT lThumb2
                {
                  OFFSET 5.2953 0 0
                  CHANNELS 6 Xposition Yposition Zposition Zrotation Xrotation Yrotation
                  JOINT lThumb3
                  {
                    OFFSET 3.0181 0 0
                    CHANNELS 6 Xposition Yposition Zposition Zrotation Xrotation Yrotation
                    End Site
                    {
                      OFFSET 2.6294 0 0
                    }
                  }
                }
              }
              JOINT lIndex1
              {
                OFFSET 9.3793 0.2991 2.5924
                CHANNELS 6 Xposition Yposition Zposition Zrotation Xrotation Yrotation
                JOINT lIndex2
                {
                  OFFSET 4.3461 0 0
                  CHANNELS 6 Xposition Yposition Zposition Zrotation Xrotation Yrotation
                  JOINT lIndex3
                  {
                    OFFSET 2.1666 0 0
                    CHANNELS 6 Xposition Yposition Zposition Zrotation Xrotation Yrotation
                    End Site
                    {
                      OFFSET 2.2048 0 0
                    }
                  }
                }
              }
              JOINT lMid1
              {
                OFFSET 9.4769 0.8376 0.2947
                CHANNELS 6 Xposition Yposition Zposition Zrotation Xrotation Yrotation
                JOINT lMid2
                {
                  OFFSET 4.772 0 0
                  CHANNELS 6 Xposition Yposition Zposition Zrotation Xrotation Yrotation
                  JOINT lMid3
                  {
                    OFFSET 2.8722 0 0
                    CHANNELS 6 Xposition Yposition Zposition Zrotation Xrotation Yrotation
                    End Site
                    {
                      OFFSET 2.0959 0 0
                    }
                  }
                }
              }
              JOINT lRing1
              {
                OFFSET 8.6586 1.0176 -1.7016
                CHANNELS 6 Xposition Yposition Zposition Zrotation Xrotation Yrotation
                JOINT lRing2
                {
                  OFFSET 4.5461 0 0
                  CHANNELS 6 Xposition Yposition Zposition Zrotation Xrotation Yrotation
                  JOINT lRing3
                  {
                    OFFSET 2.506 0 0
                    CHANNELS 6 Xposition Yposition Zposition Zrotation Xrotation Yrotation
                    End Site
                    {
                      OFFSET 2.2023 0 0
                    }
                  }
                }
              }
              JOINT lPinky1
              {
                OFFSET 7.6901 0.6618 -3.9096
                CHANNELS 6 Xposition Yposition Zposition Zrotation Xrotation Yrotation
                JOINT lPinky2
                {
                  OFFSET 3.2119 0 0
                  CHANNELS 6 Xposition Yposition Zposition Zrotation Xrotation Yrotation
                  JOINT lPinky3
                  {
                    OFFSET 1.924 0 0
                    CHANNELS 6 Xposition Yposition Zposition Zrotation Xrotation Yrotation
                    End Site
                    {
                      OFFSET 1.7829 0 0
                    }
                  }
                }
              }
            }
          }
        }
      }
      JOINT rCollar
      {
        OFFSET -4.0677 26.6109 -1.1234
        CHANNELS 6 Xposition Yposition Zposition Zrotation Xrotation Yrotation
        JOINT rShldr
        {
          OFFSET -14.1772 0 0
          CHANNELS 6 Xposition Yposition Zposition Zrotation Xrotation Yrotation
          JOINT rForeArm
          {
            OFFSET -26.1234 0 0
            CHANNELS 6 Xposition Yposition Zposition Zrotation Xrotation Yrotation
            JOINT rHand
            {
              OFFSET -27.7188 0 0
              CHANNELS 6 Xposition Yposition Zposition Zrotation Xrotation Yrotation
              JOINT rThumb1
              {
                OFFSET -2.2979 -0.4684 1.8313
                CHANNELS 6 Xposition Yposition Zposition Zrotation Xrotation Yrotation
                JOINT rThumb2
                {
                  OFFSET -5.2953 0 0
                  CHANNELS 6 Xposition Yposition Zposition Zrotation Xrotation Yrotation
                  JOINT rThumb3
                  {
                    OFFSET -3.0181 0 0
                    CHANNELS 6 Xposition Yposition Zposition Zrotation Xrotation Yrotation
                    End Site
                    {
                      OFFSET -2.6294 0 0
                    }
                  }
                }
              }
              JOINT rIndex1
              {
                OFFSET -9.3793 0.2991 2.5924
                CHANNELS 6 Xposition Yposition Zposition Zrotation Xrotation Yrotation
                JOINT rIndex2
                {
                  OFFSET -4.3461 0 0
                  CHANNELS 6 Xposition Yposition Zposition Zrotation Xrotation Yrotation
                  JOINT rIndex3
                  {
                    OFFSET -2.1666 0 0
                    CHANNELS 6 Xposition Yposition Zposition Zrotation Xrotation Yrotation
                    End Site
                    {
                      OFFSET -2.2048 0 0
                    }
                  }
                }
              }
              JOINT rMid1
              {
                OFFSET -9.4769 0.8376 0.2947
                CHANNELS 6 Xposition Yposition Zposition Zrotation Xrotation Yrotation
                JOINT rMid2
                {
                  OFFSET -4.772 0 0
                  CHANNELS 6 Xposition Yposition Zposition Zrotation Xrotation Yrotation
                  JOINT rMid3
                  {
                    OFFSET -2.8722 0 0
                    CHANNELS 6 Xposition Yposition Zposition Zrotation Xrotation Yrotation
                    End Site
                    {
                      OFFSET -2.0959 0 0
                    }
                  }
                }
              }
              JOINT rRing1
              {
                OFFSET -8.6586 1.0176 -1.7016
                CHANNELS 6 Xposition Yposition Zposition Zrotation Xrotation Yrotation
                JOINT rRing2
                {
                  OFFSET -4.5461 0 0
                  CHANNELS 6 Xposition Yposition Zposition Zrotation Xrotation Yrotation
                  JOINT rRing3
                  {
                    OFFSET -2.506 0 0
                    CHANNELS 6 Xposition Yposition Zposition Zrotation Xrotation Yrotation
                    End Site
                    {
                      OFFSET -2.2023 0 0
                    }
                  }
                }
              }
              JOINT rPinky1
              {
                OFFSET -7.6901 0.6618 -3.9096
                CHANNELS 6 Xposition Yposition Zposition Zrotation Xrotation Yrotation
                JOINT rPinky2
                {
                  OFFSET -3.2119 0 0
                  CHANNELS 6 Xposition Yposition Zposition Zrotation Xrotation Yrotation
                  JOINT rPinky3
                  {
                    OFFSET -1.924 0 0
                    CHANNELS 6 Xposition Yposition Zposition Zrotation Xrotation Yrotation
                    End Site
                    {
                      OFFSET -1.7829 0 0
                    }
                  }
                }
              }
            }
          }
        }
      }
    }
  }
  JOINT lThigh
  {
    OFFSET 8.7379 -0.0029 0.0005
    CHANNELS 6 Xposition Yposition Zposition Zrotation Xrotation Yrotation
    JOINT lShin
    {
      OFFSET 0 -46.6676 0
      CHANNELS 6 Xposition Yposition Zposition Zrotation Xrotation Yrotation
      JOINT lFoot
      {
        OFFSET 0 -40.1476 0
        CHANNELS 6 Xposition Yposition Zposition Zrotation Xrotation Yrotation
        JOINT lToes
        {
          OFFSET 0 -8.8846 14.2294
          CHANNELS 6 Xposition Yposition Zposition Zrotation Xrotation Yrotation
          End Site
          {
            OFFSET 0 0 6.296
          }
        }
      }
    }
  }
  JOINT rThigh
  {
    OFFSET -8.7379 0.0029 -0.0005
    CHANNELS 6 Xposition Yposition Zposition Zrotation Xrotation Yrotation
    JOINT rShin
    {
      OFFSET 0 -46.6676 0
      CHANNELS 6 Xposition Yposition Zposition Zrotation Xrotation Yrotation
      JOINT rFoot
      {
        OFFSET 0 -40.1476 0
        CHANNELS 6 Xposition Yposition Zposition Zrotation Xrotation Yrotation
        JOINT rToes
        {
          OFFSET 0 -8.8846 14.2294
          CHANNELS 6 Xposition Yposition Zposition Zrotation Xrotation Yrotation
          End Site
          {
            OFFSET 0 0 6.296
          }
        }
      }
    }
  }
}
MOTION
Frames:	4
Frame Time:	0.0333333
-0.0558518 90.8527 -0.103361 -1.59894 -2.95241 -16.0334 2.22045e-16 7.2397 1.77636e-15 -0.280367 -1.19837 2.31356 2.22045e-16 16.546 0 -0.340534 -0.540089 4.64545 -1.33227e-15 34.2149 1.77636e-15 4.22964 31.644 -0.474424 0 6.2923 0 1.77308 -0.0511485 6.76213 4.0639 26.6115 -1.1234 8.65668 -3.90308 -4.59732 14.1772 2.84217e-14 -1.77636e-15 -23.8873 22.2626 -74.3204 26.1234 0 1.77636e-15 -0.582177 -1.11337 -23.2064 27.7188 0 7.10543e-15 -146.738 -69.746 -143.893 2.2979 -0.4685 1.8313 54.886 65.607 -75.7795 5.2953 -1.42109e-14 -2.13163e-14 -8.70849 2.76102 2.42479 3.0181 1.42109e-14 1.42109e-14 11.6481 0.61101 2.85779 9.3793 0.2991 2.5924 -37.6441 -3.26515 6.5738 4.3461 -7.10543e-15 2.84217e-14 -42.5842 -3.16844 8.82364 2.1666 7.10543e-15 -2.84217e-14 -23.5156 -1.04861 4.59752 9.4769 0.8376 0.2947 -37.3068 -6.04138 6.59723 4.772 1.42109e-14 2.84217e-14 -41.9731 -4.04174 10.7441 2.8722 0 0 -17.1357 -0.596845 6.17678 8.6586 1.0176 -1.7016 -38.0912 0.617167 6.56346 4.5461 0 0 -43.1878 -2.431 6.13675 2.506 7.10543e-15 0 -14.8734 -0.237715 3.35081 7.6901 0.6618 -3.9096 -35.3447 -10.4149 10.7688 3.2119 -7.10543e-15 0 -42.3305 -2.63458 11.0123 1.924 0 0 -16.1163 -0.767897 7.48204 -4.0677 26.6109 -1.1234 0.209258 -5.0197 -12.5657 -14.1772 2.84217e-14 3.55271e-15 3.58201 16.8723 104.197 -26.1234 0 2.66454e-15 0.482486 -0.984528 20.2171 -27.7188 -2.84217e-14 -3.10862e-15 -22.8616 -54.9904 -33.9066 -2.2979 -0.4684 1.8313 -55.004 65.3178 75.4387 -5.2953 -1.42109e-14 0 9.69082 2.7701 -2.07063 -3.0181 0 0 -13.4379 0.507332 -2.20406 -9.3793 0.2991 2.5924 57.056 -6.05595 -9.52957 -4.3461 0 1.42109e-14 61.9058 -6.69708 -11.599 -2.1666 -7.10543e-15 -1.42109e-14 33.2487 -2.09088 -6.54191 -9.4769 0.8376 0.2947 56.5877 -8.81361 -9.59019 -4.772 -7.10543e-15 0 60.9125 -8.26704 -14.1638 -2.8722 7.10543e-15 0 26.7462 -1.60357 -8.69455 -8.6586 1.0176 -1.7016 57.703 -2.20164 -9.48297 -4.5461 0 1.42109e-14 62.8817 -4.92884 -8.05336 -2.506 -7.10543e-15 0 24.7665 -0.767537 -4.84158 -7.6901 0.6618 -3.9096 55.7975 -13.3676 -9.74232 -3.2119 -3.55271e-15 1.42109e-14 58.912 -10.4737 -18.4365 -1.924 7.10543e-15 0 25.442 -2.0013 -10.7523 8.7379 -0.0029 0.0005 11.6449 -20.1149 35.3442 -1.88738e-15 -46.6676 0 18.3309 40.1575 -1.8205 1.77636e-15 -40.1476 -3.55271e-15 -11.6764 -14.1526 6.30336 -1.77636e-15 -8.8846 14.2294 0.0001 -1.49089e-16 -6.36111e-15 -8.7379 0.0029 -0.0005 -8.42736 -17.4924 -32.1596 3.10862e-15 -46.6676 0 -18.375 40.3741 4.30148 3.55271e-15 -40.1476 -8.88178e-16 12.601 -17.6885 -5.86328 0 -8.8846 14.2294 9.93923e-17 -4.96962e-17 9.54166e-15 
-0.0533354 90.8526 -0.0924292 -1.59738 -2.93965 -16.0084 -2.22045e-16 7.2397 0 -0.30108 -1.19751 2.3195 -4.44089e-16 16.546 8.88178e-16 -0.381737 -0.539193 4.65969 -4.44089e-16 34.2149 0 4.31922 31.6602 -0.521726 0 6.2923 0 1.69018 0.0437061 6.72542 4.0639 26.6115 -1.1234 8.88811 -3.89953 -4.81117 14.1772 2.84217e-14 -1.77636e-15 -24.1264 22.223 -74.078 26.1234 2.84217e-14 3.55271e-15 -0.590195 -1.12315 -23.4385 27.7188 2.84217e-14 0 -147.241 -69.8127 -144.44 2.2979 -0.4685 1.8313 54.886 65.607 -75.7795 5.2953 0 7.10543e-15 -8.70849 2.76102 2.42479 3.0181 1.42109e-14 7.10543e-15 11.6481 0.61101 2.85779 9.3793 0.2991 2.5924 -37.6441 -3.26515 6.5738 4.3461 0 0 -42.5842 -3.16844 8.82364 2.1666 -7.10543e-15 0 -23.5156 -1.04861 4.59752 9.4769 0.8376 0.2947 -37.3068 -6.04138 6.59723 4.772 7.10543e-15 0 -41.9731 -4.04174 10.7441 2.8722 -7.10543e-15 0 -17.1357 -0.596845 6.17678 8.6586 1.0176 -1.7016 -38.0912 0.617167 6.56346 4.5461 7.10543e-15 0 -43.1878 -2.431 6.13675 2.506 1.42109e-14 0 -14.8734 -0.237715 3.35081 7.6901 0.6618 -3.9096 -35.3447 -10.4149 10.7688 3.2119 7.10543e-15 0 -42.3305 -2.63458 11.0123 1.924 7.10543e-15 2.84217e-14 -16.1163 -0.767897 7.48204 -4.0677 26.6109 -1.1234 0.389491 -5.06277 -12.7069 -14.1772 0 0 3.45243 16.8617 104.242 -26.1234 5.68434e-14 2.22045e-15 0.48289 -0.985082 20.2297 -27.7188 2.84217e-14 1.77636e-15 -22.6111 -54.899 -33.8583 -2.2979 -0.4684 1.8313 -55.004 65.3178 75.4387 -5.2953 4.26326e-14 -7.10543e-15 9.69082 2.7701 -2.07063 -3.0181 2.84217e-14 0 -13.4379 0.507332 -2.20406 -9.3793 0.2991 2.5924 57.056 -6.05595 -9.52957 -4.3461 -7.10543e-15 1.42109e-14 61.9058 -6.69708 -11.599 -2.1666 0 -1.42109e-14 33.2487 -2.09088 -6.54191 -9.4769 0.8376 0.2947 56.5877 -8.81361 -9.59019 -4.772 0 -1.42109e-14 60.9125 -8.26704 -14.1638 -2.8722 -1.42109e-14 1.42109e-14 26.7462 -1.60357 -8.69455 -8.6586 1.0176 -1.7016 57.703 -2.20164 -9.48297 -4.5461 7.10543e-15 0 62.8817 -4.92884 -8.05336 -2.506 7.10543e-15 0 24.7665 -0.767537 -4.84158 -7.6901 0.6618 -3.9096 55.7975 -13.3676 -9.74232 -3.2119 7.10543e-15 0 58.912 -10.4737 -18.4365 -1.924 0 1.42109e-14 25.442 -2.0013 -10.7523 8.7379 -0.0029 0.0005 11.6712 -20.1124 35.3897 -3.33067e-16 -46.6676 0 18.3325 40.1605 -1.82901 -1.77636e-15 -40.1476 0 -11.6845 -14.1596 6.29245 2.66454e-15 -8.8846 14.2294 0.0001 0 9.54166e-15 -8.7379 0.0029 -0.0005 -8.44487 -17.4889 -32.2427 8.88178e-16 -46.6676 0 -18.3993 40.3624 4.35253 -1.77636e-15 -40.1476 -1.77636e-15 12.6039 -17.6949 -5.85672 0 -8.8846 14.2294 -1.98785e-16 -4.96962e-17 9.54166e-15 
-0.0472374 90.8465 -0.0792366 -1.58418 -2.92923 -15.9874 0 7.2397 0 -0.325068 -1.18949 2.31813 -4.44089e-16 16.546 8.88178e-16 -0.428669 -0.524132 4.65955 8.88178e-16 34.2149 -8.88178e-16 4.39471 31.6718 -0.561598 0 6.2923 0 1.61074 0.131006 6.69501 4.0639 26.6115 -1.1234 9.17674 -3.89897 -5.05245 14.1772 -2.84217e-14 1.77636e-15 -24.5682 22.1484 -73.6777 26.1234 -2.84217e-14 -1.77636e-15 -0.601838 -1.13721 -23.7735 27.7188 0 3.55271e-15 -147.879 -69.9761 -145.115 2.2979 -0.4685 1.8313 54.886 65.607 -75.7795 5.2953 0 0 -8.70849 2.76102 2.42479 3.0181 0 -1.42109e-14 11.6481 0.61101 2.85779 9.3793 0.2991 2.5924 -37.6441 -3.26515 6.5738 4.3461 7.10543e-15 -2.84217e-14 -42.5842 -3.16844 8.82364 2.1666 0 0 -23.5156 -1.04861 4.59752 9.4769 0.8376 0.2947 -37.3068 -6.04138 6.59723 4.772 -7.10543e-15 0 -41.9731 -4.04174 10.7441 2.8722 0 2.84217e-14 -17.1357 -0.596845 6.17678 8.6586 1.0176 -1.7016 -38.0912 0.617167 6.56346 4.5461 7.10543e-15 0 -43.1878 -2.431 6.13675 2.506 7.10543e-15 0 -14.8734 -0.237715 3.35081 7.6901 0.6618 -3.9096 -35.3447 -10.4149 10.7688 3.2119 1.42109e-14 0 -42.3305 -2.63458 11.0123 1.924 0 0 -16.1163 -0.767897 7.48204 -4.0677 26.6109 -1.1234 0.524389 -5.09409 -12.8126 -14.1772 -2.84217e-14 -7.10543e-15 3.36225 16.834 104.283 -26.1234 0 1.33227e-15 0.482621 -0.984712 20.2213 -27.7188 0 5.77316e-15 -22.1277 -54.7884 -33.6444 -2.2979 -0.4684 1.8313 -55.004 65.3178 75.4387 -5.2953 1.42109e-14 0 9.69082 2.7701 -2.07063 -3.0181 2.84217e-14 0 -13.4379 0.507332 -2.20406 -9.3793 0.2991 2.5924 57.056 -6.05595 -9.52957 -4.3461 0 1.42109e-14 61.9058 -6.69708 -11.599 -2.1666 7.10543e-15 0 33.2487 -2.09088 -6.54191 -9.4769 0.8376 0.2947 56.5877 -8.81361 -9.59019 -4.772 7.10543e-15 0 60.9125 -8.26704 -14.1638 -2.8722 -1.42109e-14 0 26.7462 -1.60357 -8.69455 -8.6586 1.0176 -1.7016 57.703 -2.20164 -9.48297 -4.5461 0 0 62.8817 -4.92884 -8.05336 -2.506 0 0 24.7665 -0.767537 -4.84158 -7.6901 0.6618 -3.9096 55.7975 -13.3676 -9.74232 -3.2119 7.10543e-15 1.42109e-14 58.912 -10.4737 -18.4365 -1.924 7.10543e-15 -1.42109e-14 25.442 -2.0013 -10.7523 8.7379 -0.0029 0.0005 11.6962 -20.112 35.4511 -1.33227e-15 -46.6676 0 18.3388 40.1783 -1.8354 -1.77636e-15 -40.1476 0 -11.6985 -14.1742 6.27395 -1.77636e-15 -8.8846 14.2294 0.0001 4.96962e-17 3.18055e-15 -8.7379 0.0029 -0.0005 -8.48636 -17.4994 -32.3317 -1.33227e-15 -46.6676 0 -18.4271 40.3794 4.42683 0 -40.1476 1.77636e-15 12.6022 -17.7173 -5.84751 -1.77636e-15 -8.8846 14.2294 5.51738e-33 -4.96962e-17 6.36111e-15 
-0.0383772 90.8365 -0.0644297 -1.56461 -2.92376 -15.9607 0 7.2397 0 -0.347896 -1.17368 2.30298 -4.44089e-16 16.546 8.88178e-16 -0.472869 -0.493407 4.63162 8.88178e-16 34.2149 8.88178e-16 4.44399 31.6743 -0.5855 0 6.2923 0 1.56176 0.192962 6.68695 4.0639 26.6115 -1.1234 9.47821 -3.90191 -5.27893 14.1772 2.84217e-14 -3.55271e-15 -25.2087 22.0462 -73.1531 26.1234 0 0 -0.615593 -1.15362 -24.1664 27.7188 -2.84217e-14 -3.55271e-15 -148.434 -70.2447 -145.693 2.2979 -0.4685 1.8313 54.886 65.607 -75.7795 5.2953 0 -1.42109e-14 -8.70849 2.76102 2.42479 3.0181 0 -7.10543e-15 11.6481 0.61101 2.85779 9.3793 0.2991 2.5924 -37.6441 -3.26515 6.5738 4.3461 0 0 -42.5842 -3.16844 8.82364 2.1666 0 0 -23.5156 -1.04861 4.59752 9.4769 0.8376 0.2947 -37.3068 -6.04138 6.59723 4.772 7.10543e-15 -1.42109e-14 -41.9731 -4.04174 10.7441 2.8722 -7.10543e-15 0 -17.1357 -0.596845 6.17678 8.6586 1.0176 -1.7016 -38.0912 0.617167 6.56346 4.5461 7.10543e-15 0 -43.1878 -2.431 6.13675 2.506 0 2.84217e-14 -14.8734 -0.237715 3.35081 7.6901 0.6618 -3.9096 -35.3447 -10.4149 10.7688 3.2119 -1.42109e-14 -2.84217e-14 -42.3305 -2.63458 11.0123 1.924 7.10543e-15 -2.84217e-14 -16.1163 -0.767897 7.48204 -4.0677 26.6109 -1.1234 0.609182 -5.11293 -12.8788 -14.1772 -2.84217e-14 3.55271e-15 3.35037 16.8012 104.32 -26.1234 0 4.44089e-16 0.481795 -0.983587 20.1957 -27.7188 0 0 -21.5059 -54.669 -33.3976 -2.2979 -0.4684 1.8313 -55.004 65.3178 75.4387 -5.2953 0 -7.10543e-15 9.69082 2.7701 -2.07063 -3.0181 0 -7.10543e-15 -13.4379 0.507332 -2.20406 -9.3793 0.2991 2.5924 57.056 -6.05595 -9.52957 -4.3461 0 2.84217e-14 61.9058 -6.69708 -11.599 -2.1666 7.10543e-15 -1.42109e-14 33.2487 -2.09088 -6.54191 -9.4769 0.8376 0.2947 56.5877 -8.81361 -9.59019 -4.772 -7.10543e-15 0 60.9125 -8.26704 -14.1638 -2.8722 0 1.42109e-14 26.7462 -1.60357 -8.69455 -8.6586 1.0176 -1.7016 57.703 -2.20164 -9.48297 -4.5461 0 0 62.8817 -4.92884 -8.05336 -2.506 7.10543e-15 1.42109e-14 24.7665 -0.767537 -4.84158 -7.6901 0.6618 -3.9096 55.7975 -13.3676 -9.74232 -3.2119 0 1.42109e-14 58.912 -10.4737 -18.4365 -1.924 7.10543e-15 -1.42109e-14 25.442 -2.0013 -10.7523 8.7379 -0.0029 0.0005 11.703 -20.1186 35.4738 4.44089e-16 -46.6676 7.10543e-15 18.3451 40.2071 -1.82173 -1.77636e-15 -40.1476 0 -11.7191 -14.1899 6.25729 -2.66454e-15 -8.8846 14.2294 0.0001 1.98785e-16 6.36111e-15 -8.7379 0.0029 -0.0005 -8.55428 -17.5112 -32.4603 4.44089e-15 -46.6676 0 -18.4573 40.4147 4.54488 3.55271e-15 -40.1476 8.88178e-16 12.5867 -17.7558 -5.84022 1.77636e-15 -8.8846 14.2294 -9.93923e-17 -4.96962e-17 -0 
